HIERARCHY
ROOT reference
{
  OFFSET -65.3212 -1.93545 -120.338
  CHANNELS 6 Xposition Yposition Zposition Zrotation Xrotation Yrotation
  JOINT Hips
  {
    OFFSET 0 78.7191 0
    CHANNELS 3 Zrotation Xrotation Yrotation
    JOINT Chest
    {
      OFFSET 0 8.7983 -4.7612
      CHANNELS 3 Zrotation Xrotation Yrotation
      JOINT Chest2
      {
        OFFSET 0 8.0291 0.4195
        CHANNELS 3 Zrotation Xrotation Yrotation
        JOINT Chest3
        {
          OFFSET 0 9.9351 -2.2114
          CHANNELS 3 Zrotation Xrotation Yrotation
          JOINT Neck
          {
            OFFSET 0 22.3885 -0.4656
            CHANNELS 3 Zrotation Xrotation Yrotation
            JOINT Head
            {
              OFFSET -0.0001 12.643 3.4389
              CHANNELS 3 Zrotation Xrotation Yrotation
              End Site
              {
                OFFSET 0.0001 17.6655 0.5274
              }
            }
          }
          JOINT LeftCollar
          {
            OFFSET 2.2603 21.606 7.4023
            CHANNELS 3 Zrotation Xrotation Yrotation
            JOINT LeftShoulder
            {
              OFFSET 13.5163 -1.1332 -5.0146
              CHANNELS 3 Zrotation Xrotation Yrotation
              JOINT LeftElbow
              {
                OFFSET -0.0995 -28.05 -0.2431
                CHANNELS 3 Zrotation Xrotation Yrotation
                JOINT LeftWrist
                {
                  OFFSET 0.0679 -23.3996 -0.1402
                  CHANNELS 3 Zrotation Xrotation Yrotation
                  JOINT LeftFinger1
                  {
                    OFFSET 0.7932 -9.069 2.5189
                    CHANNELS 3 Zrotation Xrotation Yrotation
                    JOINT LeftFinger11
                    {
                      OFFSET -0.8272 -3.3923 0.5977
                      CHANNELS 3 Zrotation Xrotation Yrotation
                      JOINT LeftFinger12
                      {
                        OFFSET -0.5649 -2.3158 0.4082
                        CHANNELS 3 Zrotation Xrotation Yrotation
                        End Site
                        {
                          OFFSET -0.4919 -1.6479 0.2673
                        }
                      }
                    }
                  }
                  JOINT LeftFinger2
                  {
                    OFFSET 0.9159 -9.2044 0.2193
                    CHANNELS 3 Zrotation Xrotation Yrotation
                    JOINT LeftFinger21
                    {
                      OFFSET 0.0117 -4.1944 -0.0248
                      CHANNELS 3 Zrotation Xrotation Yrotation
                      JOINT LeftFinger22
                      {
                        OFFSET 0.0071 -2.3249 -0.0142
                        CHANNELS 3 Zrotation Xrotation Yrotation
                        End Site
                        {
                          OFFSET -0.1475 -2.0882 0.0028
                        }
                      }
                    }
                  }
                  JOINT LeftFinger3
                  {
                    OFFSET 0.6113 -8.7231 -2.0637
                    CHANNELS 3 Zrotation Xrotation Yrotation
                    JOINT LeftFinger31
                    {
                      OFFSET -0.1927 -3.8059 -0.2383
                      CHANNELS 3 Zrotation Xrotation Yrotation
                      JOINT LeftFinger32
                      {
                        OFFSET -0.1091 -2.1688 -0.1362
                        CHANNELS 3 Zrotation Xrotation Yrotation
                        End Site
                        {
                          OFFSET -0.2358 -1.9176 -0.0906
                        }
                      }
                    }
                  }
                  JOINT LeftFinger4
                  {
                    OFFSET -0.6151 -8.0947 -3.5641
                    CHANNELS 3 Zrotation Xrotation Yrotation
                    JOINT LeftFinger41
                    {
                      OFFSET -0.4882 -2.341 -0.6462
                      CHANNELS 3 Zrotation Xrotation Yrotation
                      JOINT LeftFinger42
                      {
                        OFFSET -0.3575 -1.7167 -0.4742
                        CHANNELS 3 Zrotation Xrotation Yrotation
                        End Site
                        {
                          OFFSET -0.4187 -1.5237 -0.3496
                        }
                      }
                    }
                  }
                  JOINT LeftFinger0
                  {
                    OFFSET -1.42 -1.8761 1.4223
                    CHANNELS 3 Zrotation Xrotation Yrotation
                    JOINT LeftFinger01
                    {
                      OFFSET -1.1471 -3.4929 2.6334
                      CHANNELS 3 Zrotation Xrotation Yrotation
                      JOINT LeftFinger02
                      {
                        OFFSET -0.823 -2.3 1.6571
                        CHANNELS 3 Zrotation Xrotation Yrotation
                        End Site
                        {
                          OFFSET -0.5822 -1.6914 1.1582
                        }
                      }
                    }
                  }
                }
              }
            }
          }
          JOINT RightCollar
          {
            OFFSET -2.2603 21.606 7.4023
            CHANNELS 3 Zrotation Xrotation Yrotation
            JOINT RightShoulder
            {
              OFFSET -13.5187 -1.1334 -5.0155
              CHANNELS 3 Zrotation Xrotation Yrotation
              JOINT RightElbow
              {
                OFFSET 0.0994 -28.0499 -0.2431
                CHANNELS 3 Zrotation Xrotation Yrotation
                JOINT RightWrist
                {
                  OFFSET -0.0679 -23.3996 -0.1402
                  CHANNELS 3 Zrotation Xrotation Yrotation
                  JOINT RightFinger1
                  {
                    OFFSET -0.7932 -9.0691 2.5189
                    CHANNELS 3 Zrotation Xrotation Yrotation
                    JOINT RightFinger11
                    {
                      OFFSET 0.8272 -3.3923 0.5977
                      CHANNELS 3 Zrotation Xrotation Yrotation
                      JOINT RightFinger12
                      {
                        OFFSET 0.565 -2.3158 0.4082
                        CHANNELS 3 Zrotation Xrotation Yrotation
                        End Site
                        {
                          OFFSET 0.4919 -1.6479 0.2673
                        }
                      }
                    }
                  }
                  JOINT RightFinger2
                  {
                    OFFSET -0.916 -9.2044 0.2193
                    CHANNELS 3 Zrotation Xrotation Yrotation
                    JOINT RightFinger21
                    {
                      OFFSET -0.0117 -4.1944 -0.0248
                      CHANNELS 3 Zrotation Xrotation Yrotation
                      JOINT RightFinger22
                      {
                        OFFSET -0.0071 -2.3249 -0.0142
                        CHANNELS 3 Zrotation Xrotation Yrotation
                        End Site
                        {
                          OFFSET 0.1475 -2.0882 0.0028
                        }
                      }
                    }
                  }
                  JOINT RightFinger3
                  {
                    OFFSET -0.6113 -8.7231 -2.0637
                    CHANNELS 3 Zrotation Xrotation Yrotation
                    JOINT RightFinger31
                    {
                      OFFSET 0.1927 -3.8059 -0.2383
                      CHANNELS 3 Zrotation Xrotation Yrotation
                      JOINT RightFinger32
                      {
                        OFFSET 0.1091 -2.1688 -0.1362
                        CHANNELS 3 Zrotation Xrotation Yrotation
                        End Site
                        {
                          OFFSET 0.2358 -1.9176 -0.0906
                        }
                      }
                    }
                  }
                  JOINT RightFinger4
                  {
                    OFFSET 0.6151 -8.0947 -3.564
                    CHANNELS 3 Zrotation Xrotation Yrotation
                    JOINT RightFinger41
                    {
                      OFFSET 0.4882 -2.341 -0.6462
                      CHANNELS 3 Zrotation Xrotation Yrotation
                      JOINT RightFinger42
                      {
                        OFFSET 0.3574 -1.7166 -0.4742
                        CHANNELS 3 Zrotation Xrotation Yrotation
                        End Site
                        {
                          OFFSET 0.4187 -1.5237 -0.3496
                        }
                      }
                    }
                  }
                  JOINT RightFinger0
                  {
                    OFFSET 1.4199 -1.8761 1.4221
                    CHANNELS 3 Zrotation Xrotation Yrotation
                    JOINT RightFinger01
                    {
                      OFFSET 1.1472 -3.4929 2.6336
                      CHANNELS 3 Zrotation Xrotation Yrotation
                      JOINT RightFinger02
                      {
                        OFFSET 0.8229 -2.3 1.6571
                        CHANNELS 3 Zrotation Xrotation Yrotation
                        End Site
                        {
                          OFFSET 0.5822 -1.6914 1.1582
                        }
                      }
                    }
                  }
                }
              }
            }
          }
        }
      }
    }
    JOINT RightHip
    {
      OFFSET -9.412 3.9771 -0.7758
      CHANNELS 3 Zrotation Xrotation Yrotation
      JOINT RightKnee
      {
        OFFSET -0.7531 -40.938 0
        CHANNELS 3 Zrotation Xrotation Yrotation
        JOINT RightAnkle
        {
          OFFSET 0 -40.1986 0
          CHANNELS 3 Zrotation Xrotation Yrotation
          JOINT RightToe
          {
            OFFSET 0 -4.4182 9.239
            CHANNELS 3 Zrotation Xrotation Yrotation
            End Site
            {
              OFFSET 0 0 6.1981
            }
          }
        }
      }
    }
    JOINT LeftHip
    {
      OFFSET 9.4119 3.9773 -0.7758
      CHANNELS 3 Zrotation Xrotation Yrotation
      JOINT LeftKnee
      {
        OFFSET 0.7532 -40.9383 0
        CHANNELS 3 Zrotation Xrotation Yrotation
        JOINT LeftAnkle
        {
          OFFSET 0 -40.1986 0
          CHANNELS 3 Zrotation Xrotation Yrotation
          JOINT LeftToe
          {
            OFFSET 0 -4.4182 9.239
            CHANNELS 3 Zrotation Xrotation Yrotation
            End Site
            {
              OFFSET 0 0 6.1981
            }
          }
        }
      }
    }
  }
}
MOTION
Frames:	6
Frame Time:	0.0333333
4.79004 -9.79068 3.29218 0 0 -0 8.39887 -6.53213 -8.50999 5.2266 6.51804 -4.50301 11.0565 12.5733 -9.67719 11.0566 12.5733 -9.67722 -3.55207 -5.92283 -37.8369 -6.40025 -2.44119 -32.1734 14.1639 -1.75988 -13.4086 -29.7331 20.1451 35.012 -3.84482 -37.9114 37.9625 2.86454 12.7134 -53.008 5.57336 -11.4587 0.439479 -0.231684 -2.91638 -1.22211 7.73911 -4.7492 0.735549 13.0743 -7.80384 2.17481 -0.970395 -5.65462 0.610353 13.0502 -7.84333 2.17352 12.6997 -8.34185 2.56079 -0.947693 -6.29803 1.56799 12.7032 -8.33 2.59189 19.076 0.0208764 -1.99067 -0.110819 -5.82793 4.26798 12.7519 -8.15758 3.00012 -7.05206 -9.58319 1.38833 1.10233e-005 1.33228e-007 1.92668e-005 -4.426 -5.97731 1.00513 -13.836 0.0721077 2.83084 -31.4003 -4.98752 -18.7122 31.5875 -10.5914 27.1243 -6.95383 -2.09547 57.0607 -3.43732 -8.45032 0.0415953 -0.052873 -0.498327 0.586134 -4.12143 -1.41061 0.0158415 -9.13514 -3.02364 -0.460365 0.265394 -1.43723 -0.154604 -9.11887 -3.06639 -0.461923 -13.7827 -5.1536 -1.37012 0.422284 -2.81651 -1.16626 -13.7839 -5.13778 -1.39894 -26.2022 -0.00572442 4.24638 -0.452361 -2.24714 -3.89839 -13.8218 -4.93099 -1.77089 3.30204 -8.0334 -2.26839 -1.16998 2.6422 0.857857 1.68632 -4.00084 -1.18947 -1.62498 -19.1938 20.4588 19.041 58.9163 -22.9011 -0.925074 -38.5412 -10.5982 1.03573 7.01194 -0.466165 -2.88568 -29.1357 -10.0537 -4.74336 40.1025 -8.48331 -6.56021 -8.65217 -12.4847 1.56201 -11.5245 0.157866 
4.65728 -10.3679 3.3254 0 0 -0 7.61484 -6.94244 -8.28435 5.05615 6.23349 -4.31818 10.6622 12.0399 -9.25294 10.6622 12.04 -9.25296 -4.95947 -5.92925 -34.2169 -6.52536 -1.82163 -28.367 14.0834 -1.75956 -13.4169 -28.1466 21.6623 36.5014 -5.14238 -37.3884 35.9469 3.22014 13.4129 -52.9125 5.55664 -11.4462 0.439573 -0.230939 -2.90854 -1.21822 7.72149 -4.73858 0.733161 13.0315 -7.77631 2.16465 -0.96717 -5.63573 0.610838 13.0068 -7.81866 2.16348 12.6562 -8.31586 2.54718 -0.944684 -6.27661 1.5655 12.6604 -8.30368 2.58026 19.0337 0.0438249 -2.00784 -0.110803 -5.80722 4.25621 12.7087 -8.13181 2.98713 -7.05205 -9.58319 1.38834 -7.11814e-006 -1.63115e-006 7.31094e-006 -4.42601 -5.97732 1.00514 -13.1597 -0.258231 3.11468 -31.1162 -3.36078 -18.7375 31.2794 -10.5048 27.6017 -5.85383 -2.19063 56.8067 -3.43732 -8.45032 0.0415756 -0.0528639 -0.498308 0.586136 -4.12143 -1.4106 0.0158381 -9.08702 -3.00476 -0.456524 0.264073 -1.42967 -0.154444 -9.07092 -3.05054 -0.458238 -13.7336 -5.13703 -1.36121 0.420895 -2.8064 -1.16356 -13.7365 -5.12095 -1.39207 -26.1532 0.00674423 4.25885 -0.450776 -2.23787 -3.88595 -13.7741 -4.91498 -1.76282 3.30202 -8.0334 -2.26843 -1.17 2.6422 0.85788 1.68632 -4.00085 -1.18946 -0.884763 -19.1891 20.1616 20.1751 60.0236 -23.9755 -1.01602 -39.2582 -10.4962 1.03917 7.03327 -0.46782 -2.29385 -30.0364 -10.5388 -5.44609 42.7266 -8.09535 -6.28566 -9.83543 -12.5093 1.57112 -11.591 0.159603 
4.51784 -11.189 3.38489 0 0 -0 6.41827 -7.5154 -8.21724 4.79441 5.8448 -4.07102 10.0703 11.3106 -8.6855 10.0703 11.3106 -8.68552 -6.55645 -6.55078 -28.4129 -6.44191 -0.977236 -22.6627 14.0061 -1.75886 -13.3929 -26.2353 24.2059 38.6982 -6.79596 -37.2714 32.8449 3.5735 14.5305 -52.5358 5.5399 -11.4337 0.439687 -0.230241 -2.90069 -1.21434 7.70385 -4.72797 0.730764 12.9886 -7.74876 2.15452 -0.96389 -5.61686 0.611294 12.9634 -7.79396 2.15347 12.6127 -8.28986 2.53359 -0.941493 -6.25522 1.563 12.6177 -8.27734 2.56866 18.9914 0.0667969 -2.02501 -0.110659 -5.78654 4.2444 12.6655 -8.10602 2.97416 -7.05206 -9.58317 1.38832 8.79595e-006 -8.07461e-006 1.73337e-005 -4.42603 -5.97732 1.00514 -12.2246 -0.737261 3.58741 -30.7623 -1.38514 -18.7854 30.7717 -10.1067 28.0458 -3.90448 -2.41347 56.7825 -3.43731 -8.45033 0.0416176 -0.0528618 -0.498325 0.586114 -4.12143 -1.4106 0.0158488 -9.03888 -2.98591 -0.452645 0.262755 -1.42212 -0.154292 -9.02294 -3.03466 -0.454551 -13.6844 -5.12047 -1.35233 0.419483 -2.79631 -1.1608 -13.6892 -5.10407 -1.38522 -26.1041 0.0192075 4.27132 -0.449144 -2.2286 -3.87351 -13.7265 -4.89895 -1.75476 3.30201 -8.03339 -2.26845 -1.16999 2.6422 0.857876 1.68632 -4.00084 -1.18947 0.30521 -19.1333 20.0271 21.8099 61.4652 -25.5188 -1.10403 -40.1738 -10.4341 1.02517 6.93997 -0.46082 -1.38072 -31.426 -10.842 -6.173 46.54 -7.69892 -6.00192 -11.4112 -12.6766 1.58589 -11.6984 0.162683 
4.36398 -12.1247 3.44411 0 0 -0 5.05279 -8.19286 -8.03811 4.46628 5.37416 -3.81937 9.34221 10.4201 -8.1 9.34224 10.4201 -8.10003 -7.68758 -7.78574 -21.4495 -5.82727 -0.0575991 -15.8996 13.9012 -1.75782 -13.3583 -24.0416 27.7366 41.487 -9.20639 -37.8774 28.7309 4.36186 15.929 -52.7367 5.52321 -11.4211 0.439803 -0.229453 -2.89286 -1.21044 7.6862 -4.71732 0.728375 12.9458 -7.7212 2.14438 -0.960613 -5.598 0.611746 12.92 -7.76926 2.14346 12.5693 -8.26384 2.51998 -0.938494 -6.23384 1.56048 12.5749 -8.25097 2.55706 18.9491 0.0897586 -2.04219 -0.110569 -5.76583 4.23262 12.6223 -8.08023 2.9612 -7.05206 -9.58318 1.38833 1.60371e-005 -3.18557e-007 1.73374e-005 -4.42602 -5.97731 1.00514 -11.0311 -1.30295 4.14557 -30.3285 0.920449 -18.8546 30.0371 -9.71734 28.5145 -1.5586 -2.06287 57.3417 -3.4373 -8.45032 0.0416415 -0.052869 -0.498317 0.586129 -4.12144 -1.41061 0.0158343 -8.99078 -2.96701 -0.44882 0.261452 -1.41459 -0.154113 -8.97503 -3.01879 -0.450875 -13.6352 -5.10388 -1.34345 0.418041 -2.78625 -1.15806 -13.6419 -5.08721 -1.37839 -26.055 0.0316833 4.28381 -0.447597 -2.21937 -3.86108 -13.6789 -4.88288 -1.74672 3.30203 -8.0334 -2.26851 -1.17 2.6422 0.857864 1.68631 -4.00085 -1.18944 1.5984 -19.1106 19.7167 23.9069 63.1097 -27.5075 -1.20068 -41.2234 -10.367 1.02039 6.90659 -0.45832 -0.547911 -32.5832 -11.2177 -6.47537 50.3195 -7.57701 -5.84174 -13.0457 -12.9035 1.60064 -11.8058 0.165765 
4.21168 -13.0595 3.49506 0 0 -0 3.58791 -8.88557 -7.92113 4.12549 4.88923 -3.56216 8.59365 9.49826 -7.50835 8.59369 9.49829 -7.50839 -7.90542 -9.39466 -14.5546 -4.6856 0.85879 -9.0654 13.8122 -1.75687 -13.321 -21.7791 31.8328 44.4023 -12.1742 -39.0414 24.027 5.0344 17.9284 -52.4782 5.50647 -11.4086 0.439933 -0.228728 -2.88502 -1.20655 7.66856 -4.7067 0.725993 12.903 -7.69364 2.1343 -0.957302 -5.57912 0.612177 12.8751 -7.74371 2.1331 12.5257 -8.23782 2.50643 -0.935433 -6.21244 1.55793 12.5322 -8.22461 2.5455 18.9068 0.112777 -2.0593 -0.110453 -5.74517 4.22079 12.579 -8.05444 2.94829 -7.05206 -9.58317 1.38835 3.74358e-006 -1.89756e-006 1.03051e-005 -4.42604 -5.97733 1.00513 -9.75253 -1.89509 4.74988 -29.9145 3.2953 -18.9845 29.256 -9.33859 28.949 1.02676 -2.56262 57.298 -3.43732 -8.45031 0.0416911 -0.0528727 -0.498324 0.586117 -4.12144 -1.4106 0.0158504 -8.94265 -2.94814 -0.444989 0.260131 -1.40703 -0.153925 -8.92706 -3.00292 -0.447206 -13.586 -5.08729 -1.33454 0.416657 -2.77613 -1.15536 -13.5945 -5.07036 -1.37156 -26.006 0.0441838 4.29625 -0.445929 -2.21012 -3.84864 -13.6313 -4.86683 -1.73869 3.30199 -8.0334 -2.26862 -1.16999 2.64217 0.85789 1.68633 -4.00085 -1.18944 2.98954 -19.1506 19.4216 26.2622 64.7381 -29.7386 -1.28909 -42.197 -10.376 1.0073 6.82107 -0.451767 0.511167 -33.5537 -11.4103 -6.86706 53.7763 -7.44148 -5.59025 -14.5293 -13.2049 1.56159 -11.8679 0.171514 
4.07437 -13.8647 3.56335 0 0 -0 2.26634 -9.52048 -7.6063 3.79633 4.41961 -3.36135 7.88032 8.5981 -7.03963 7.88034 8.59813 -7.03966 -7.25673 -10.8276 -8.71106 -2.98111 1.84586 -3.4253 13.6081 -1.75512 -13.2634 -19.3717 36.1388 47.193 -15.7643 -40.468 18.8446 5.62083 20.0508 -52.0329 5.48977 -11.3961 0.440055 -0.227991 -2.87717 -1.20268 7.65093 -4.69607 0.7236 12.8602 -7.66607 2.12423 -0.954104 -5.56024 0.612585 12.8303 -7.71812 2.12275 12.4823 -8.21178 2.49287 -0.932257 -6.19107 1.55539 12.4874 -8.19695 2.5334 18.8645 0.135762 -2.07643 -0.110261 -5.72372 4.20848 12.5359 -8.02863 2.93538 -7.05205 -9.58319 1.38836 8.26789e-006 6.00628e-006 2.30883e-005 -4.42603 -5.97732 1.00513 -8.48857 -2.45298 5.32673 -29.4384 5.57935 -19.1438 28.3169 -9.11217 29.2096 3.48819 -3.21459 57.5451 -3.43731 -8.45031 0.0415656 -0.0528519 -0.49834 0.586142 -4.12142 -1.41061 0.0158447 -8.89454 -2.92925 -0.441208 0.258728 -1.39898 -0.153718 -8.87907 -2.98706 -0.443586 -13.5369 -5.07069 -1.32572 0.415221 -2.76592 -1.15259 -13.5434 -5.05214 -1.36421 -25.9569 0.0566882 4.30869 -0.44433 -2.20089 -3.8362 -13.5812 -4.84993 -1.73025 3.30206 -8.03339 -2.26841 -1.17002 2.64217 0.857903 1.68634 -4.00086 -1.18942 4.14813 -18.98 18.9199 28.3067 65.9724 -31.707 -1.37083 -43.0922 -10.3289 1.01414 6.86581 -0.455176 1.39364 -34.7843 -11.7151 -7.48101 57.0517 -7.18596 -5.33758 -15.7074 -13.4491 1.55401 -11.9119 0.17409 
